<svg width="20" height="16" viewBox="0 0 20 16" fill="none" xmlns="http://www.w3.org/2000/svg">
<path fill-rule="evenodd" clip-rule="evenodd" d="M13.9062 0.5C12.293 0.5 10.8805 1.19375 10 2.36641C9.11953 1.19375 7.70703 0.5 6.09375 0.5C3.41987 0.503014 1.25301 2.66987 1.25 5.34375C1.25 10.8125 9.35859 15.2391 9.70391 15.4219C9.88878 15.5213 10.1112 15.5213 10.2961 15.4219C10.6414 15.2391 18.75 10.8125 18.75 5.34375C18.747 2.66987 16.5801 0.503014 13.9062 0.5ZM10 14.1562C8.57344 13.325 2.5 9.53828 2.5 5.34375C2.50258 3.36005 4.11005 1.75258 6.09375 1.75C7.61328 1.75 8.88906 2.55938 9.42188 3.85938C9.51818 4.09382 9.74654 4.2469 10 4.2469C10.2535 4.2469 10.4818 4.09382 10.5781 3.85938C11.1109 2.55703 12.3867 1.75 13.9062 1.75C15.89 1.75258 17.4974 3.36005 17.5 5.34375C17.5 9.53203 11.425 13.3242 10 14.1562Z" fill="#121A0F"/>
<path fill-rule="evenodd" clip-rule="evenodd" d="M13.9062 0.5C12.293 0.5 10.8805 1.19375 10 2.36641C9.11953 1.19375 7.70703 0.5 6.09375 0.5C3.41987 0.503014 1.25301 2.66987 1.25 5.34375C1.25 10.8125 9.35859 15.2391 9.70391 15.4219C9.88878 15.5213 10.1112 15.5213 10.2961 15.4219C10.6414 15.2391 18.75 10.8125 18.75 5.34375C18.747 2.66987 16.5801 0.503014 13.9062 0.5ZM10 14.1562C8.57344 13.325 2.5 9.53828 2.5 5.34375C2.50258 3.36005 4.11005 1.75258 6.09375 1.75C7.61328 1.75 8.88906 2.55938 9.42188 3.85938C9.51818 4.09382 9.74654 4.2469 10 4.2469C10.2535 4.2469 10.4818 4.09382 10.5781 3.85938C11.1109 2.55703 12.3867 1.75 13.9062 1.75C15.89 1.75258 17.4974 3.36005 17.5 5.34375C17.5 9.53203 11.425 13.3242 10 14.1562Z" fill="black" fill-opacity="0.2"/>
<path fill-rule="evenodd" clip-rule="evenodd" d="M13.9062 0.5C12.293 0.5 10.8805 1.19375 10 2.36641C9.11953 1.19375 7.70703 0.5 6.09375 0.5C3.41987 0.503014 1.25301 2.66987 1.25 5.34375C1.25 10.8125 9.35859 15.2391 9.70391 15.4219C9.88878 15.5213 10.1112 15.5213 10.2961 15.4219C10.6414 15.2391 18.75 10.8125 18.75 5.34375C18.747 2.66987 16.5801 0.503014 13.9062 0.5ZM10 14.1562C8.57344 13.325 2.5 9.53828 2.5 5.34375C2.50258 3.36005 4.11005 1.75258 6.09375 1.75C7.61328 1.75 8.88906 2.55938 9.42188 3.85938C9.51818 4.09382 9.74654 4.2469 10 4.2469C10.2535 4.2469 10.4818 4.09382 10.5781 3.85938C11.1109 2.55703 12.3867 1.75 13.9062 1.75C15.89 1.75258 17.4974 3.36005 17.5 5.34375C17.5 9.53203 11.425 13.3242 10 14.1562Z" stroke="black"/>
</svg>
